<mxfile host="app.diagrams.net" modified="2020-09-28T02:03:22.966Z" agent="5.0 (Windows NT 6.3; Win64; x64) AppleWebKit/537.36 (KHTML, like Gecko) Chrome/85.0.4183.121 Safari/537.36" etag="PWoJPVUmCvHxiXi9o6YX" version="13.7.5" type="github">
  <diagram id="pMgjZZXWP9TjOqpDY5YE" name="Page-1">
    <mxGraphModel dx="766" dy="1300" grid="1" gridSize="10" guides="1" tooltips="1" connect="1" arrows="1" fold="1" page="1" pageScale="1" pageWidth="1100" pageHeight="850" math="0" shadow="0">
      <root>
        <mxCell id="0" />
        <mxCell id="1" parent="0" />
        <mxCell id="IYTINZ7hOh6iWXkwWNtv-1" value="you" style="rounded=0;whiteSpace=wrap;html=1;" vertex="1" parent="1">
          <mxGeometry x="60" y="-680" width="120" height="60" as="geometry" />
        </mxCell>
        <mxCell id="IYTINZ7hOh6iWXkwWNtv-2" value="" style="shape=flexArrow;endArrow=classic;html=1;" edge="1" parent="1">
          <mxGeometry width="50" height="50" relative="1" as="geometry">
            <mxPoint x="320" y="-520" as="sourcePoint" />
            <mxPoint x="370" y="-570" as="targetPoint" />
            <Array as="points">
              <mxPoint x="180" y="-660" />
            </Array>
          </mxGeometry>
        </mxCell>
        <mxCell id="IYTINZ7hOh6iWXkwWNtv-3" value="halp" style="ellipse;whiteSpace=wrap;html=1;strokeWidth=2;fillWeight=2;hachureGap=8;fillColor=#990000;fillStyle=dots;sketch=1;" vertex="1" parent="1">
          <mxGeometry x="270" y="-510" width="120" height="60" as="geometry" />
        </mxCell>
        <mxCell id="IYTINZ7hOh6iWXkwWNtv-4" value="base" style="ellipse;shape=doubleEllipse;whiteSpace=wrap;html=1;aspect=fixed;" vertex="1" parent="1">
          <mxGeometry x="370" y="-600" width="80" height="80" as="geometry" />
        </mxCell>
        <mxCell id="IYTINZ7hOh6iWXkwWNtv-21" value="" style="html=1;whiteSpace=wrap;shape=isoCube2;backgroundOutline=1;isoAngle=15;" vertex="1" parent="1">
          <mxGeometry x="240" y="-790" width="90" height="100" as="geometry" />
        </mxCell>
        <mxCell id="IYTINZ7hOh6iWXkwWNtv-24" value="" style="shape=flexArrow;endArrow=classic;startArrow=classic;html=1;" edge="1" parent="1">
          <mxGeometry width="50" height="50" relative="1" as="geometry">
            <mxPoint x="150" y="-700" as="sourcePoint" />
            <mxPoint x="200" y="-750" as="targetPoint" />
            <Array as="points">
              <mxPoint x="240" y="-700" />
            </Array>
          </mxGeometry>
        </mxCell>
        <mxCell id="IYTINZ7hOh6iWXkwWNtv-25" value="Actor" style="shape=umlActor;verticalLabelPosition=bottom;verticalAlign=top;html=1;outlineConnect=0;" vertex="1" parent="1">
          <mxGeometry x="380" y="-720" width="60" height="60" as="geometry" />
        </mxCell>
        <mxCell id="IYTINZ7hOh6iWXkwWNtv-26" value="Text" style="text;html=1;align=center;verticalAlign=middle;resizable=0;points=[];autosize=1;" vertex="1" parent="1">
          <mxGeometry x="800" y="-840" width="40" height="20" as="geometry" />
        </mxCell>
      </root>
    </mxGraphModel>
  </diagram>
</mxfile>
